<!--?xml version="1.0" standalone="no"?-->
              <svg id="sw-js-blob-svg" viewBox="0 0 100 100" xmlns="http://www.w3.org/2000/svg" version="1.1">
                    <defs> 
                        <linearGradient id="sw-gradient" x1="0" x2="1" y1="1" y2="0">
                            <stop id="stop1" stop-color="rgba(206, 255, 194, 1)" offset="0%"></stop>
                            <stop id="stop2" stop-color="rgba(225, 250, 122, 1)" offset="100%"></stop>
                        </linearGradient>
                    </defs>
                <path fill="url(#sw-gradient)" d="M24.2,-31.1C30,-24,32.4,-15.1,33.7,-6.2C34.9,2.7,35.1,11.5,31.8,19.3C28.4,27,21.5,33.5,13.1,37C4.7,40.5,-5.2,40.9,-14.8,38.4C-24.5,35.9,-33.9,30.4,-37.1,22.5C-40.3,14.6,-37.3,4.3,-33.5,-3.9C-29.7,-12.1,-25,-18.2,-19.3,-25.3C-13.6,-32.5,-6.8,-40.8,1.2,-42.3C9.2,-43.7,18.4,-38.3,24.2,-31.1Z" width="100%" height="100%" transform="translate(50 50)" stroke-width="0" style="transition: 0.3s;" stroke="url(#sw-gradient)"></path>
              </svg>