<?xml version="1.0" standalone="no"?>
<svg viewBox="0 0 200 200" xmlns="http://www.w3.org/2000/svg">
  <path fill="#EFA639" d="M53.1,-67.3C68.4,-61.9,80.3,-45.9,83.3,-28.9C86.3,-11.9,80.6,6.2,73.9,23.2C67.2,40.2,59.7,56,47.3,66.1C34.8,76.2,17.4,80.4,1.9,77.8C-13.5,75.1,-27.1,65.5,-42.4,56.4C-57.7,47.2,-74.7,38.5,-80.4,25.1C-86.1,11.7,-80.6,-6.3,-72.9,-21.7C-65.2,-37.1,-55.3,-49.8,-42.8,-56.1C-30.2,-62.4,-15.1,-62.3,1.9,-64.9C18.9,-67.5,37.7,-72.7,53.1,-67.3Z" transform="translate(100 100)" />
</svg>
