<!--?xml version="1.0" standalone="no"?-->
              <svg id="sw-js-blob-svg" viewBox="0 0 100 100" xmlns="http://www.w3.org/2000/svg" version="1.1">
                    <defs> 
                        <linearGradient id="sw-gradient" x1="0" x2="1" y1="1" y2="0">
                            <stop id="stop1" stop-color="rgba(239, 166, 57, 1)" offset="0%"></stop>
                            <stop id="stop2" stop-color="rgba(206, 255, 194, 1)" offset="100%"></stop>
                        </linearGradient>
                    </defs>
                <path fill="url(#sw-gradient)" d="M23.9,-34.6C30,-28.4,33.3,-20.2,36.1,-11.7C39,-3.2,41.3,5.5,37.9,11.2C34.5,16.9,25.3,19.5,18,25.3C10.8,31,5.4,39.7,-1.5,41.8C-8.5,44,-17,39.5,-21.3,32.8C-25.7,26.2,-25.9,17.3,-25.8,10.2C-25.6,3,-25.1,-2.5,-25.2,-10.1C-25.3,-17.6,-26.1,-27.3,-22,-34.1C-17.9,-40.9,-8.9,-44.9,0,-44.8C8.9,-44.8,17.8,-40.8,23.9,-34.6Z" width="100%" height="100%" transform="translate(50 50)" stroke-width="0" style="transition: 0.3s;" stroke="url(#sw-gradient)"></path>
              </svg>